<svg width="64" height="64" viewBox="0 0 64 64" xmlns="http://www.w3.org/2000/svg">
  <defs>
    <linearGradient id="gradient1" x1="0%" y1="0%" x2="100%" y2="100%">
      <stop offset="0%" style="stop-color:#4F46E5;stop-opacity:1" />
      <stop offset="50%" style="stop-color:#7C3AED;stop-opacity:1" />
      <stop offset="100%" style="stop-color:#EC4899;stop-opacity:1" />
    </linearGradient>
    <linearGradient id="gradient2" x1="0%" y1="0%" x2="100%" y2="0%">
      <stop offset="0%" style="stop-color:#10B981;stop-opacity:1" />
      <stop offset="100%" style="stop-color:#3B82F6;stop-opacity:1" />
    </linearGradient>
    <radialGradient id="bgGradient" cx="50%" cy="50%" r="50%">
      <stop offset="0%" style="stop-color:#4F46E5;stop-opacity:0.1" />
      <stop offset="100%" style="stop-color:#7C3AED;stop-opacity:0.05" />
    </radialGradient>
  </defs>
  
  <!-- 背景 -->
  <rect width="64" height="64" rx="12" fill="url(#bgGradient)"/>
  
  <!-- 主要图谱网络 -->
  <g stroke="url(#gradient1)" stroke-width="2.5" fill="none">
    <!-- 连接线 -->
    <line x1="16" y1="20" x2="26" y2="32" opacity="0.7"/>
    <line x1="26" y1="32" x2="38" y2="26" opacity="0.7"/>
    <line x1="38" y1="26" x2="48" y2="38" opacity="0.7"/>
    <line x1="26" y1="32" x2="32" y2="44" opacity="0.7"/>
    <line x1="38" y1="26" x2="44" y2="16" opacity="0.7"/>
    <line x1="16" y1="20" x2="22" y2="12" opacity="0.5"/>
    <line x1="48" y1="38" x2="54" y2="30" opacity="0.5"/>
    <line x1="32" y1="44" x2="40" y2="50" opacity="0.5"/>
  </g>
  
  <!-- 图谱节点 -->
  <g fill="url(#gradient1)">
    <circle cx="16" cy="20" r="3.5"/>
    <circle cx="26" cy="32" r="4.5"/>
    <circle cx="38" cy="26" r="3.5"/>
    <circle cx="48" cy="38" r="3.5"/>
    <circle cx="32" cy="44" r="3"/>
    <circle cx="44" cy="16" r="3"/>
    <circle cx="22" cy="12" r="2.5"/>
    <circle cx="54" cy="30" r="2.5"/>
    <circle cx="40" cy="50" r="2.5"/>
  </g>
  
  <!-- 中央AI符号 -->
  <g transform="translate(26, 22)">
    <path d="M6 12 L12 6 L18 12 L12 18 Z" fill="url(#gradient2)" opacity="0.9"/>
    <circle cx="12" cy="12" r="3" fill="white"/>
    <circle cx="12" cy="12" r="1.5" fill="url(#gradient2)"/>
  </g>
  
  <!-- 装饰性粒子 -->
  <g opacity="0.4">
    <circle cx="10" cy="50" r="1.5" fill="url(#gradient2)"/>
    <circle cx="54" cy="54" r="1" fill="url(#gradient2)"/>
    <circle cx="8" cy="8" r="1" fill="url(#gradient2)"/>
    <circle cx="56" cy="10" r="1.5" fill="url(#gradient2)"/>
  </g>
</svg>